<svg xmlns="http://www.w3.org/2000/svg" xmlns:xlink="http://www.w3.org/1999/xlink" width="48" height="48" version="1.1" viewBox="0 0 48 48"><title>grid-view</title><desc>Created with Sketch.</desc><g id="Page-1" fill="none" fill-rule="evenodd" stroke="none" stroke-width="1"><g id="grid-view" fill="#333"><g id="Group"><rect id="Rectangle" width="14" height="8" x="0" y="0"/><rect id="Rectangle-Copy" width="8.909" height="4" x="0" y="10"/><rect id="Rectangle-Copy-8" width="14" height="8" x="0" y="17"/><rect id="Rectangle-Copy-12" width="14" height="8" x="0" y="34"/><rect id="Rectangle-Copy-10" width="8.909" height="4" x="0" y="27"/><rect id="Rectangle-Copy-14" width="8.909" height="4" x="0" y="44"/></g><g id="Group-Copy" transform="translate(34.000000, 0.000000)"><rect id="Rectangle" width="14" height="8" x="0" y="0"/><rect id="Rectangle-Copy" width="8.909" height="4" x="0" y="10"/><rect id="Rectangle-Copy-8" width="14" height="8" x="0" y="17"/><rect id="Rectangle-Copy-12" width="14" height="8" x="0" y="34"/><rect id="Rectangle-Copy-10" width="8.909" height="4" x="0" y="27"/><rect id="Rectangle-Copy-14" width="8.909" height="4" x="0" y="44"/></g><g id="Group-Copy-2" transform="translate(17.000000, 0.000000)"><rect id="Rectangle" width="14" height="8" x="0" y="0"/><rect id="Rectangle-Copy" width="8.909" height="4" x="0" y="10"/><rect id="Rectangle-Copy-8" width="14" height="8" x="0" y="17"/><rect id="Rectangle-Copy-12" width="14" height="8" x="0" y="34"/><rect id="Rectangle-Copy-10" width="8.909" height="4" x="0" y="27"/><rect id="Rectangle-Copy-14" width="8.909" height="4" x="0" y="44"/></g></g></g></svg>